<svg xmlns="http://www.w3.org/2000/svg" viewBox="0 0 1200 580" font-family="Space Grotesk, system-ui, sans-serif" role="img" aria-label="Ghost Net traffic diversion architecture">
  <defs>
    <marker id="dvLeg" markerWidth="10" markerHeight="10" refX="9" refY="5" orient="auto">
      <path d="M0 0 L10 5 L0 10 z" fill="#6B8E3D"></path>
    </marker>
    <marker id="dvHos" markerWidth="10" markerHeight="10" refX="9" refY="5" orient="auto">
      <path d="M0 0 L10 5 L0 10 z" fill="#B0432C"></path>
    </marker>
    <marker id="dvCln" markerWidth="10" markerHeight="10" refX="9" refY="5" orient="auto">
      <path d="M0 0 L10 5 L0 10 z" fill="#4FA08F"></path>
    </marker>
  </defs>

  <rect width="1200" height="580" fill="#FBF7EE"></rect>

  <text x="48" y="48" font-family="Space Grotesk, sans-serif" font-weight="500" font-size="11" letter-spacing="2.4" fill="#5E4E36">FIGURE 02 · ARCHITECTURE</text>
  <text x="48" y="82" font-family="Rajdhani, sans-serif" font-weight="500" font-size="24" letter-spacing="0.5" fill="#0F0B05">Ghost Net diversion — straight orthogonal routing</text>
  <line x1="48" y1="100" x2="1152" y2="100" stroke="#3A2F20" stroke-opacity="0.28" stroke-width="1"></line>

  

  
  <rect x="48" y="160" width="200" height="380" fill="#FBF7EE" stroke="#3A2F20" stroke-opacity="0.28" stroke-width="1"></rect>
  <text x="62" y="188" font-family="Space Grotesk, sans-serif" font-weight="500" font-size="10.5" letter-spacing="2.3" fill="#5E4E36">INTERNET</text>

  
  <g transform="translate(108, 216)">
    <rect x="0" y="0" width="48" height="48" fill="#FBF7EE" stroke="#3A2F20" stroke-width="1.4"></rect>
    <line x1="0" y1="10" x2="48" y2="10" stroke="#3A2F20" stroke-width="1.4"></line>
    <circle cx="6" cy="5" r="0.9" fill="#3A2F20"></circle>
    <circle cx="11" cy="5" r="0.9" fill="#3A2F20"></circle>
    <text x="24" y="68" text-anchor="middle" font-family="Space Grotesk, sans-serif" font-weight="600" font-size="13" fill="#0F0B05">client</text>
    <text x="24" y="84" text-anchor="middle" font-family="JetBrains Mono, monospace" font-size="10.5" fill="#5E4E36">203.0.113.41</text>
  </g>

  
  <g transform="translate(108, 456)">
    <rect x="0" y="0" width="48" height="48" fill="#FBF7EE" stroke="#B0432C" stroke-width="1.4"></rect>
    <line x1="0" y1="10" x2="48" y2="10" stroke="#B0432C" stroke-width="1.4"></line>
    <text x="24" y="-8" text-anchor="middle" font-family="Space Grotesk, sans-serif" font-weight="600" font-size="13" fill="#B0432C">attaquant</text>
    <text x="24" y="-22" text-anchor="middle" font-family="JetBrains Mono, monospace" font-size="10.5" fill="#5E4E36">198.51.100.7</text>
  </g>

  
  <rect x="430" y="310" width="280" height="100" fill="#15110A" stroke="#EFE5D2" stroke-opacity="0.22" stroke-width="1"></rect>
  <text x="444" y="336" font-family="Space Grotesk, sans-serif" font-weight="500" font-size="10.5" letter-spacing="2.3" fill="#EFE5D2">ORCHESTRATOR</text>

  <g transform="translate(454, 348)">
    <rect x="0" y="0" width="40" height="40" fill="#4FA08F" stroke="#2C6E62" stroke-width="1.4"></rect>
    <rect x="5" y="5" width="30" height="30" fill="none" stroke="#FBF7EE" stroke-width="1"></rect>
    <circle cx="20" cy="20" r="2" fill="#FBF7EE"></circle>
    <text x="52" y="16" font-family="Space Grotesk, sans-serif" font-weight="600" font-size="13" fill="#EFE5D2">orchestrator-1</text>
    <text x="52" y="32" font-family="JetBrains Mono, monospace" font-size="11" fill="#8EC9BC">A2A · MCP control</text>
  </g>

  
  <rect x="900" y="180" width="252" height="120" fill="#FBF7EE" stroke="#3A2F20" stroke-opacity="0.28" stroke-width="1"></rect>
  <text x="914" y="208" font-family="Space Grotesk, sans-serif" font-weight="500" font-size="10.5" letter-spacing="2.3" fill="#5E4E36">PRODUCTION · vRack 3210</text>

  <g transform="translate(932, 224)">
    <rect x="0" y="0" width="60" height="32" rx="2" fill="#FBF7EE" stroke="#3A2F20" stroke-width="1.4"></rect>
    <line x1="10" y1="6" x2="10" y2="26" stroke="#3A2F20"></line>
    <line x1="20" y1="6" x2="20" y2="26" stroke="#3A2F20"></line>
    <line x1="30" y1="6" x2="30" y2="26" stroke="#3A2F20"></line>
    <line x1="40" y1="6" x2="40" y2="26" stroke="#3A2F20"></line>
    <line x1="50" y1="6" x2="50" y2="26" stroke="#3A2F20"></line>
    <text x="30" y="50" text-anchor="middle" font-family="Space Grotesk, sans-serif" font-weight="600" font-size="13" fill="#0F0B05">vrack-3210</text>
    <text x="30" y="66" text-anchor="middle" font-family="JetBrains Mono, monospace" font-size="10.5" fill="#3A2F20">10.42.7.0/24</text>
  </g>

  
  <rect x="900" y="420" width="252" height="120" fill="#EEE9F5" stroke="#7C6FA8" stroke-width="1.2" stroke-dasharray="4 3"></rect>
  <text x="914" y="448" font-family="Space Grotesk, sans-serif" font-weight="500" font-size="10.5" letter-spacing="2.3" fill="#7C6FA8">GHOST NET · gn-0094</text>

  <g transform="translate(932, 464)">
    <rect x="0" y="0" width="60" height="32" rx="2" fill="#F4F1F9" stroke="#7C6FA8" stroke-width="1.4" stroke-dasharray="3 2"></rect>
    <line x1="10" y1="6" x2="10" y2="26" stroke="#7C6FA8" stroke-dasharray="2 2"></line>
    <line x1="20" y1="6" x2="20" y2="26" stroke="#7C6FA8" stroke-dasharray="2 2"></line>
    <line x1="30" y1="6" x2="30" y2="26" stroke="#7C6FA8" stroke-dasharray="2 2"></line>
    <line x1="40" y1="6" x2="40" y2="26" stroke="#7C6FA8" stroke-dasharray="2 2"></line>
    <line x1="50" y1="6" x2="50" y2="26" stroke="#7C6FA8" stroke-dasharray="2 2"></line>
    <text x="30" y="50" text-anchor="middle" font-family="Space Grotesk, sans-serif" font-weight="600" font-size="13" fill="#7C6FA8">clone vrack</text>
    <text x="30" y="66" text-anchor="middle" font-family="JetBrains Mono, monospace" font-size="10.5" fill="#7C6FA8">vlan 4290</text>
  </g>

  

  
  <line x1="156" y1="240" x2="896" y2="240" stroke="#6B8E3D" stroke-width="2" marker-end="url(#dvLeg)"></line>
  <text x="280" y="232" font-family="Space Grotesk, sans-serif" font-size="11.5" fill="#6B8E3D">flux légitime · client → vrack-3210 (rotated)</text>

  
  <line x1="156" y1="480" x2="896" y2="480" stroke="#B0432C" stroke-width="2" marker-end="url(#dvHos)"></line>
  <text x="280" y="472" font-family="Space Grotesk, sans-serif" font-size="11.5" fill="#B0432C">flux hostile · redirigé vers Ghost Net</text>

  
  <line x1="560" y1="410" x2="560" y2="416" stroke="#4FA08F" stroke-width="1.8" stroke-dasharray="5 4" marker-end="url(#dvCln)"></line>
  <text x="572" y="404" font-family="Space Grotesk, sans-serif" font-size="11.5" fill="#2C6E62">clone (MCP)</text>

  
  <g transform="translate(48, 558)">
    <line x1="0" y1="-4" x2="32" y2="-4" stroke="#6B8E3D" stroke-width="2" marker-end="url(#dvLeg)"></line>
    <text x="40" y="0" font-family="Space Grotesk, sans-serif" font-size="11" fill="#5E4E36">flux légitime</text>

    <line x1="180" y1="-4" x2="212" y2="-4" stroke="#B0432C" stroke-width="2" marker-end="url(#dvHos)"></line>
    <text x="220" y="0" font-family="Space Grotesk, sans-serif" font-size="11" fill="#5E4E36">flux hostile (redirigé)</text>

    <line x1="380" y1="-4" x2="412" y2="-4" stroke="#4FA08F" stroke-width="1.8" stroke-dasharray="5 4" marker-end="url(#dvCln)"></line>
    <text x="420" y="0" font-family="Space Grotesk, sans-serif" font-size="11" fill="#5E4E36">clonage MCP</text>

    <rect x="540" y="-12" width="14" height="14" fill="none" stroke="#7C6FA8" stroke-width="1.2" stroke-dasharray="3 2"></rect>
    <text x="562" y="0" font-family="Space Grotesk, sans-serif" font-size="11" fill="#5E4E36">périmètre Ghost Net</text>
  </g>
</svg>