<svg xmlns="http://www.w3.org/2000/svg" viewBox="0 0 1200 240" width="100%" height="100%" preserveAspectRatio="none" fill="none" stroke="currentColor" stroke-width="0.6" opacity="0.55">
  <path d="M0 200 Q 200 160, 400 175 T 800 150 T 1200 165"></path>
  <path d="M0 180 Q 220 140, 420 152 T 820 128 T 1200 142"></path>
  <path d="M0 158 Q 180 122, 380 132 T 780 108 T 1200 122"></path>
  <path d="M0 132 Q 240 100, 440 108 T 840 86 T 1200 100"></path>
  <path d="M0 104 Q 200 78, 400 86 T 800 66 T 1200 78"></path>
  <path d="M0 78  Q 220 56, 420 60 T 820 46 T 1200 56"></path>
  <path d="M0 56  Q 200 38, 400 40 T 800 30 T 1200 36"></path>
  <path d="M0 36  Q 220 22, 420 22 T 820 14 T 1200 18"></path>
</svg>